REM DIRINDEX 1\2\6,1\2\7,1\2\8,1\2\9,1\3\10,1\3\11,1\4\12,1\4\13,1\4\14,1\5\15,1\5\16,1\5\17
REM DIRNAME folder01,folder02,folder03,folder04,folder05,folder06,folder07,folder08,folder09,folder10,folder11,folder12,folder13,folder14,folder15,folder16,folder17
TITLE ""
FILE "1900_3_035 sec06_0565_0579.mp3" MP3
  TRACK 01 AUDIO
    TITLE "0:"
    INDEX 01 00:00:00
  TRACK 02 AUDIO
    TITLE "17:cjc020_7101"
    INDEX 01 00:00:17
  TRACK 03 AUDIO
    TITLE "0:"
    INDEX 01 00:01:15
  TRACK 04 AUDIO
    TITLE "16:cjc020_7102"
    INDEX 01 00:01:19
  TRACK 05 AUDIO
    TITLE "0:"
    INDEX 01 00:02:26
  TRACK 06 AUDIO
    TITLE "17:cjc020_7103"
    INDEX 01 00:03:08
  TRACK 07 AUDIO
    TITLE "0:"
    INDEX 01 00:04:03
  TRACK 08 AUDIO
    TITLE "16:cjc020_7104"
    INDEX 01 00:04:09
  TRACK 09 AUDIO
    TITLE "0:"
    INDEX 01 00:05:10
  TRACK 10 AUDIO
    TITLE "17:cjc020_7105"
    INDEX 01 00:05:69
  TRACK 11 AUDIO
    TITLE "0:"
    INDEX 01 00:06:57
  TRACK 12 AUDIO
    TITLE "16:cjc020_7106"
    INDEX 01 00:06:67
  TRACK 13 AUDIO
    TITLE "0:"
    INDEX 01 00:07:62
  TRACK 14 AUDIO
    TITLE "17:cjc020_7107"
    INDEX 01 00:08:46
  TRACK 15 AUDIO
    TITLE "0:"
    INDEX 01 00:09:36
  TRACK 16 AUDIO
    TITLE "16:cjc020_7108"
    INDEX 01 00:09:42
  TRACK 17 AUDIO
    TITLE "0:"
    INDEX 01 00:10:72
  TRACK 18 AUDIO
    TITLE "17:cjc020_7109"
    INDEX 01 00:11:54
  TRACK 19 AUDIO
    TITLE "0:"
    INDEX 01 00:13:02
  TRACK 20 AUDIO
    TITLE "16:cjc020_7110"
    INDEX 01 00:13:04
  TRACK 21 AUDIO
    TITLE "0:"
    INDEX 01 00:14:09
  TRACK 22 AUDIO
    TITLE "17:cjc020_7111"
    INDEX 01 00:14:66
  TRACK 23 AUDIO
    TITLE "0:"
    INDEX 01 00:15:54
  TRACK 24 AUDIO
    TITLE "16:cjc020_7112"
    INDEX 01 00:15:60
  TRACK 25 AUDIO
    TITLE "0:"
    INDEX 01 00:16:51
  TRACK 26 AUDIO
    TITLE "17:cjc020_7113"
    INDEX 01 00:17:45
  TRACK 27 AUDIO
    TITLE "0:"
    INDEX 01 00:18:52
  TRACK 28 AUDIO
    TITLE "16:cjc020_7114"
    INDEX 01 00:18:56
  TRACK 29 AUDIO
    TITLE "0:"
    INDEX 01 00:19:65
  TRACK 30 AUDIO
    TITLE "17:cjc020_7115"
    INDEX 01 00:20:49
  TRACK 31 AUDIO
    TITLE "0:"
    INDEX 01 00:21:60
  TRACK 32 AUDIO
    TITLE "16:cjc020_7116"
    INDEX 01 00:21:64
  TRACK 33 AUDIO
    TITLE "0:"
    INDEX 01 00:23:16
  TRACK 34 AUDIO
    TITLE "17:cjc020_7117"
    INDEX 01 00:23:71
  TRACK 35 AUDIO
    TITLE "0:"
    INDEX 01 00:26:15
  TRACK 36 AUDIO
    TITLE "16:cjc020_7118"
    INDEX 01 00:26:22
  TRACK 37 AUDIO
    TITLE "0:"
    INDEX 01 00:27:51
  TRACK 38 AUDIO
    TITLE "17:cjc020_7119"
    INDEX 01 00:28:37
  TRACK 39 AUDIO
    TITLE "0:"
    INDEX 01 00:30:01
  TRACK 40 AUDIO
    TITLE "16:cjc020_7120"
    INDEX 01 00:30:06
  TRACK 41 AUDIO
    TITLE "0:"
    INDEX 01 00:31:08
  TRACK 42 AUDIO
    TITLE "17:cjc020_7121"
    INDEX 01 00:31:67
  TRACK 43 AUDIO
    TITLE "0:"
    INDEX 01 00:35:00
  TRACK 44 AUDIO
    TITLE "16:cjc020_7122"
    INDEX 01 00:35:08
  TRACK 45 AUDIO
    TITLE "0:"
    INDEX 01 00:36:23
  TRACK 46 AUDIO
    TITLE "17:cjc020_7123"
    INDEX 01 00:37:08
  TRACK 47 AUDIO
    TITLE "0:"
    INDEX 01 00:38:06
  TRACK 48 AUDIO
    TITLE "16:cjc020_7124"
    INDEX 01 00:38:14
  TRACK 49 AUDIO
    TITLE "0:"
    INDEX 01 00:39:27
  TRACK 50 AUDIO
    TITLE "17:cjc020_7125"
    INDEX 01 00:40:13
  TRACK 51 AUDIO
    TITLE "0:"
    INDEX 01 00:42:33
  TRACK 52 AUDIO
    TITLE "16:cjc020_7126"
    INDEX 01 00:42:39
  TRACK 53 AUDIO
    TITLE "0:"
    INDEX 01 00:43:60
  TRACK 54 AUDIO
    TITLE "17:cjc020_7127"
    INDEX 01 00:44:48
  TRACK 55 AUDIO
    TITLE "0:"
    INDEX 01 00:45:59
  TRACK 56 AUDIO
    TITLE "16:cjc020_7128"
    INDEX 01 00:45:65
  TRACK 57 AUDIO
    TITLE "0:"
    INDEX 01 00:47:21
  TRACK 58 AUDIO
    TITLE "17:cjc020_7129"
    INDEX 01 00:48:04
  TRACK 59 AUDIO
    TITLE "0:"
    INDEX 01 00:49:35
  TRACK 60 AUDIO
    TITLE "16:cjc020_7130"
    INDEX 01 00:49:41
  TRACK 61 AUDIO
    TITLE "0:"
    INDEX 01 00:50:62
